<?xml version="1.0" encoding="UTF-8" standalone="no"?>
<!-- Created with Inkscape (http://www.inkscape.org/) -->
<svg
   xmlns:dc="http://purl.org/dc/elements/1.1/"
   xmlns:cc="http://creativecommons.org/ns#"
   xmlns:rdf="http://www.w3.org/1999/02/22-rdf-syntax-ns#"
   xmlns:svg="http://www.w3.org/2000/svg"
   xmlns="http://www.w3.org/2000/svg"
   xmlns:sodipodi="http://sodipodi.sourceforge.net/DTD/sodipodi-0.dtd"
   xmlns:inkscape="http://www.inkscape.org/namespaces/inkscape"
   id="svg2592"
   sodipodi:version="0.32"
   inkscape:version="0.46"
   width="430"
   height="308"
   version="1.0"
   sodipodi:docname="MusicSwirls.svg"
   inkscape:output_extension="org.inkscape.output.svg.inkscape">
  <metadata
     id="metadata2597">
    <rdf:RDF>
      <cc:Work
         rdf:about="">
        <dc:format>image/svg+xml</dc:format>
        <dc:type
           rdf:resource="http://purl.org/dc/dcmitype/StillImage" />
      </cc:Work>
    </rdf:RDF>
  </metadata>
  <defs
     id="defs2595">
    <inkscape:perspective
       sodipodi:type="inkscape:persp3d"
       inkscape:vp_x="0 : 526.18109 : 1"
       inkscape:vp_y="0 : 1000 : 0"
       inkscape:vp_z="744.09448 : 526.18109 : 1"
       inkscape:persp3d-origin="372.04724 : 350.78739 : 1"
       id="perspective2599" />
  </defs>
  <sodipodi:namedview
     inkscape:window-height="1002"
     inkscape:window-width="1280"
     inkscape:pageshadow="2"
     inkscape:pageopacity="0.0"
     guidetolerance="10.0"
     gridtolerance="10.0"
     objecttolerance="10.0"
     borderopacity="1.0"
     bordercolor="#666666"
     pagecolor="#ffffff"
     id="base"
     showgrid="false"
     inkscape:zoom="1.275974"
     inkscape:cx="390.28875"
     inkscape:cy="183.52378"
     inkscape:window-x="1148"
     inkscape:window-y="-4"
     inkscape:current-layer="svg2592" />
  <path
     style="fill:#000000"
     d="M 303.96875,81.3125 C 306.94511,82.79568 309.74548,84 310.1875,84 C 312.03876,84 310.67281,82.840619 305.25,79.8125 C 250.55107,38.616031 308.28988,-14.057984 361,11.9375 C 336.22611,21.173398 323.18868,47.425857 339.15625,72.21875 C 341.43895,74.796198 341.38813,74.6228 337.71875,65.5 C 330.20343,43.771621 342.11145,19.499103 365.47181,15.561275 C 372.49195,22.941766 384.25148,41.071907 385.58088,51.931985 C 376.42254,48.405849 366.48581,68.126109 386.15441,62.977328 C 384.76047,69.774187 383.05187,79.279923 382.07904,80.053922 C 375.94302,75.91444 367.89216,80.135041 369.3413,90.360294 C 369.8339,93.836154 369.48542,102.12392 368.875,103.875 C 367.25126,113.9634 327.56542,129.04064 323.15196,126.04534 C 322.10401,120.80556 321.88592,95 323,95 C 324.74831,95 331.50453,102.4149 333.5,106.53125 C 334.55765,108.71301 335.48727,112.66345 335.59375,115.3125 C 335.82482,121.06042 336.59425,122.20081 337.90625,118.75 C 338.99618,115.88325 337.09979,106.05614 334.40625,100.6875 C 332.75532,97.396954 322.17747,86 320.78125,86 C 320.35154,86 320,94.493109 320,104.875 L 320,123.75 C 314.68274,120.40116 307.96841,120.91716 304.25,125.90625 C 297.58056,128.21586 236.12558,128.31704 233.62745,127.69424 C 233.93992,122.9746 232.16652,124.3267 239,122.5625 C 244.99753,121.01412 252.52696,118.31216 252,114.125 C 250.49819,101.55026 227.43506,108.09636 230,118.53125 L 230,128.59375 L 220.0625,130.28125 C 214.60887,131.22208 206.88618,132.68625 205.93444,133.05147 C 221.59797,121.44047 187.79484,110.3357 188.53064,136.7739 C 167.68934,145.20896 147.40863,156.02964 126.10172,163.3174 C 124.53437,157.92229 117.68295,146.74203 112.25,140.84375 C 108.12068,136.52165 104.35202,133 103.875,133 C 103.39797,133 103.00842,142.7875 103,154.75 C 102.99158,166.7125 102.65408,176.95 102.25,177.5 C 72.213896,169.12794 81.659866,206.20448 104.4375,185.9375 C 106.28523,183.36559 109.87956,180.83722 112.40625,179.02267 C 113.85257,177.98401 117.11582,175.67753 119.6875,173.77267 C 119.73809,173.7956 119.78516,172.76172 119.84375,172.78125 C 122.18624,173.56208 120.9174,177.66163 117.25,181.125 C 115.1875,183.07276 108.55,188.56582 102.5,193.3125 C 96.45,198.05918 88.444452,204.50435 84.71875,207.625 C 80.993049,210.74565 77.682084,212.99458 77.34375,212.65625 C 77.005414,212.31791 76.495122,201.47138 76.21875,188.53125 C 75.942379,175.59112 75.357982,165 74.9375,165 C 74.162509,165 72.951812,172.83351 73.15625,176.5 C 73.217584,177.6 73.200396,186.0375 73.125,195.25 L 73,212 C 62.675903,205.97014 52.82393,214.6694 55,223.6348 C 51.441855,227.88023 50.167607,228.76704 43.554534,234.02696 C 41.822397,233.63777 35.762988,232.45898 33.65625,232.03125 C 31.549511,231.60351 29.411207,230.78621 28.875,230.25 C 27.120774,228.49577 29.091961,224.26417 34.625,217.875 C 41.992982,209.36695 45.141711,202.59541 45.75,194.09375 C 46.346958,185.75048 44.907841,180.93608 40.75,177.4375 C 38.31541,175.38893 36.960137,174.9685 34.5625,175.4375 C 24.414004,177.4227 20.148358,188.49011 22.4375,206.90625 L 23.53125,215.8125 L 17.28125,222.9375 C 13.834977,226.85791 10.312222,231.46472 9.4375,233.15625 C 6.9324504,238.00049 6.4353676,246.2649 8.375,251.34375 C 10.563661,257.07468 13.888328,260.04465 20.8125,262.53125 C 24.025206,263.685 26.609646,265.26518 26.78125,266.15625 C 26.948183,267.02307 25.94665,269.09914 24.53125,270.78125 C 23.115849,272.46336 22.380058,274.11229 22.90625,274.4375 C 23.432443,274.76271 24.154535,274.59023 24.5,274.03125 C 25.450084,272.49398 27,272.79904 27,274.53125 C 27,276.89084 24.443922,277.33625 21.59375,275.46875 C 16.162304,271.90993 9.9134065,277.13965 13.34375,282.375 C 15.533164,285.71647 18.172295,286.3628 22.40625,284.59375 C 26.668601,282.81282 29.536322,278.4261 31.15625,271.1875 C 32.199935,266.52382 33.096191,265.17829 38.1875,260.75 C 41.402553,257.95363 45.005696,254.06225 46.1875,252.09375 C 49.366796,246.79805 72.749214,223.29023 86.5,211.5625 C 99.285981,200.65762 118.52215,186 120.0625,186 C 122.96401,186 119.25963,190.36896 111.0625,196.5625 C 95.644876,208.21165 62.989091,241.30763 44.5625,264 C 43.445976,265.375 52.219391,257.02057 64.03125,245.4375 C 82.782206,227.04973 89.082505,221.1963 103.5,208.75 C 105.15,207.32559 109.65,203.65587 113.5,200.59375 L 120.5,195.03125 C 121.19968,200.75708 120.84413,206.14549 119.38419,211.66973 C 94.15661,206.65462 98.28825,234.17637 117.6875,225.03125 C 123.30456,221.60631 124.07509,219.41017 124.71875,204.9375 L 125.3125,191.75 L 133.40625,186.53125 C 137.85769,183.66373 145.8875,178.94957 151.25,176.0625 L 161,170.8125 L 161,184.40625 L 161,198 C 131.7951,191.95968 142.19172,224.35673 161.84375,208.71875 C 163.45183,206.78113 164.82476,194.97413 165.125,180.625 L 165.375,168.75 L 168.9375,167.21875 C 176.18011,164.15074 188.45437,160.11186 188.96875,160.625 C 190.35205,167.85375 189.87104,175.32827 191.21875,182.5625 L 233,169.84375 C 234.00207,166.15638 231.59504,157.82954 234.45895,155.20956 C 292.91943,159.648 327.55069,217.46959 264.65625,256.1875 C 251.40129,260.21357 237.84608,256.04753 228.75,245.78125 C 224.16667,240.60828 223,240.06514 223,241.875 C 241.10022,277.15617 282.18002,262.70437 296.84375,229.0625 C 299.13107,224.49258 301,220.05393 301,219.1875 C 301,217.92492 300.74262,225.91243 301.87929,227.46691 C 302.65932,228.53366 304.37709,227.02672 304.70098,226.70282 C 305.02488,226.37892 305.32553,209.81585 305.6875,196.96875 L 306.34375,173.59375 L 311.1875,179.0625 C 324.09176,192.57077 330.25418,208.35844 331.96875,226.6875 C 332.24854,231.16259 333.44418,232.10186 330.86213,233.34314 C 317.49752,235.64002 317.02764,249.89883 329,248.4375 C 329,250.82847 319.13405,269.74669 315.45895,272.06801 C 305.11303,268.84618 301.23334,264.90307 300.21875,258.5 C 299.57273,250.7099 297,251.61118 297,259.625 C 297.7145,268.54536 307.76596,271.02699 314,275.03125 C 314,276.47902 300.34894,285.6454 293.49081,290.20466 C 270.06508,305.79802 241.53931,310.89136 216.61213,296.91483 C 187.77596,272.41533 186.38552,250.78992 209.53125,224.46875 C 211.92432,222.28114 213.25598,220.77131 212.8125,220.78125 C 210.46866,221.87006 208.45811,223.69977 206.5,225.375 C 181.33448,249.45481 189.53787,282.76714 216.5,301.09375 C 252.36202,318.47303 289.90685,301.4746 316.85907,276.27328 C 339.1126,270.72086 356.49556,253.52102 357.8125,230.40625 C 362.44299,194.77168 336.18438,173.54681 324.36275,165.37194 C 323.25341,159.55292 318.15778,158.9069 315.1875,159.25 L 287.0625,149.5 C 287.0625,149.5 298.20217,149.97763 313.28125,149.5 C 356.81622,151.65717 414.86483,135.20722 429.5,87.5 C 444.13517,39.792783 416.80462,6.0113646 365.88051,10.573529 C 359.63347,8.1805759 361.54703,7.5792741 347.75,3.59375 C 293.15035,-11.085995 245.29347,42.1158 303.96875,81.3125 z M 378.0625,15.78125 C 399.11194,18.849238 414.19792,33.570891 418.65625,55.4375 C 434.25008,162.19142 265.75447,139.99489 234,136.394 C 234,135.1355 234.96202,130.78128 236.75,130.28125 C 240.38469,129.26479 296.99173,128.86524 302.95282,129.88603 C 302.1131,133.50907 313.07148,141.00625 323.32353,129.72181 C 346.59575,127.02065 366.80701,111.03418 370,107.875 C 369.50427,113.1472 370.15625,117.6875 370.15625,117.6875 C 370.28452,126.63201 370.3386,127.01063 371.03125,122 C 371.44942,118.975 371.85187,111.27016 371.90625,104.875 C 371.98425,95.704801 371.03375,90.69152 372.34559,91.573529 C 374.11259,92.761566 375.90398,92.187689 376.15625,91.78125 C 376.7374,90.844949 376.61021,93.863378 375,96.46875 C 372.41611,100.64958 373.22181,102.68312 376,99 C 381.63407,91.530748 384.27152,85.710152 385.625,77.78125 C 386.40119,73.234175 387.76336,67.25 388.625,64.5 C 390.32279,59.081286 393.5824,23.014787 390.0625,26 C 388.95253,26.941358 389.12474,32.55 389.03125,37.5 C 388.79382,50.072858 387.83463,51.86321 385.625,43.875 C 383.46177,36.05455 378.5476,27.025407 372.96875,20.6875 C 370.65604,18.060126 369.04573,15.610509 369.40625,15.25 C 372.22828,14.819846 375.2391,15.399739 378.0625,15.78125 z M 228.09375,131.125 C 229.74853,131.15115 230,134.93189 230,136.03676 C 219.65799,139.05847 208.72447,139.96251 198.34375,143.0625 C 194.96207,144.34821 194.02691,144.26134 193.375,142.5625 C 192.03498,139.07045 193.79888,138.27546 212.40625,134.09375 C 217.60704,132.94935 222.78445,131.60375 228.09375,131.125 z M 188.96875,140 C 188.6017,142.37132 188.00388,142.81815 187.9375,144.84375 C 187.88668,146.39447 182.41477,148.1429 178.1875,149.8125 C 168.23503,153.74333 165,154.52327 165,153.0625 C 165,152.43516 164.0234,151.59262 162.84375,151.15625 C 161.12257,150.51955 163.3847,149.33982 174.3125,145.1875 C 181.80212,142.3416 188.40371,140 188.96875,140 z M 105,141.59375 L 109.125,145.5625 C 111.39021,147.73662 114.99021,151.68186 117.125,154.34375 C 120.33462,158.34583 121,159.95505 121,163.65625 C 121,166.11802 120.47262,169.1062 119.84375,170.28125 C 119.44383,171.02852 119.24579,171.54971 119.21875,171.9375 C 116.37681,173.61068 112.83361,175.85611 111.34375,176.90625 C 107.74004,179.44639 106.53143,179.87922 105.875,178.84375 C 105.41147,178.11258 105.00842,169.43663 105,159.5625 L 105,141.59375 z M 239.34375,144 C 240.42022,144 241.8996,144.06442 243.46875,144.15625 C 254.07482,148.19491 293.18198,160.79547 300.5,169.96875 C 301.59253,172.08147 301.98591,176.02156 301.96875,184.1875 L 301.9375,195.5 C 290.6915,162.29584 266.09077,154.56617 235.28676,145.19975 C 234.66555,143.53409 230.431,144 239.34375,144 z M 249.5625,144.34375 C 259.86503,145.84146 277.21578,148.33864 280.5,148.63848 C 281.8671,150.00558 303.45339,157.32075 312.25,159.78125 C 306.75294,160.10045 304.14926,163.39147 301.78615,167.09804 C 285.14116,155.5557 263.64775,148.59988 249.5625,144.34375 z M 227.65625,144.53125 C 229.10838,144.48254 229.55701,144.76799 228.90625,145.40625 C 228.67708,145.63101 221.525,146.99121 213,148.4375 C 204.475,149.8838 196.6,151.31355 195.5,151.59375 C 193.89764,152.00192 193.80406,151.90638 195.03125,151.125 C 196.86374,149.95821 207.76707,147.33619 214.59375,146.4375 C 217.28445,146.08328 221.52544,145.45143 224,145 C 225.55186,144.71689 226.78497,144.56048 227.65625,144.53125 z M 187.9375,153.03125 C 189.34153,153.10552 184.53952,155.22858 176.6875,158 C 167.49532,161.24444 164.36259,161.86086 170,159.34375 C 173.89741,157.60355 187.04035,152.98379 187.9375,153.03125 z M 230.09375,154.75 L 229.5,166.46875 C 217.90389,170.10677 206.53895,174.51445 194.875,177.9375 C 192.81931,173.49851 192.7652,164.58919 193.4326,159.12071 L 230.09375,154.75 z M 161,156.5 C 161,156.70782 156.6125,159.20404 151.25,162.0625 C 145.8875,164.92097 138.07959,169.22093 133.90625,171.625 C 129.73291,174.02908 125.76129,176 125.0625,176 C 123.44717,176 124.50381,171.20136 126.65625,168.8125 C 137.48763,163.51845 149.30858,158.85945 161,156.5 z M 159.875,164.15625 C 160.71514,164.10799 158.26248,165.83171 152,169.3125 C 146.775,172.21664 139.94676,176.2237 136.84375,178.21875 C 128.86469,183.34882 125,185.23111 125,184 C 125,182.51726 135.35967,176.01293 148.03125,169.53125 C 154.90478,166.01535 159.03486,164.20451 159.875,164.15625 z M 323.34375,167.8125 C 345.39356,182.08674 368.78211,257.15675 319.19975,272.52696 C 320.81713,269.89216 319.27409,273.55043 326.8125,257.71875 C 329.10877,252.89628 330.66226,248.41936 331,248 C 336.27914,245.80071 338.41817,242.91914 338.5,238.6875 C 339.89924,234.71934 338.5,222.59375 338.5,222.59375 C 338.5,198.85362 334.41982,202.42798 335.49571,218.94608 C 335.49571,218.94608 337.1146,234.88998 334.25429,232.45221 C 334.19427,196.36342 318.53741,181.60295 310,175.25 C 313.44172,176.33312 318.42016,176.98801 323.34375,167.8125 z M 37.6875,182.125 C 38.322892,182.0953 38.692608,182.39385 39.125,183.03125 C 40.871782,185.60624 39.413556,195.49059 36.5,200.84375 C 35.00856,203.58402 32.184608,207.31971 30.25,209.15625 L 26.75,212.5 L 27.3125,201.1875 C 27.943756,188.47402 28.951193,185.94074 34.59375,183.25 C 36.122653,182.52092 37.052108,182.1547 37.6875,182.125 z M 57.25,226.125 C 58.289576,226.07023 58.03473,227.79176 61.397672,228.04044 C 60.04047,229.69427 61.347272,229.2004 55.125,235.375 C 48.611882,241.83821 48.129655,242.1231 47.09375,240.1875 C 45.2358,236.71589 45.300104,237.73622 44.797181,236.5288 C 50.837156,231.10432 55.780853,227.53368 57.25,226.125 z M 24.53125,228.625 C 24.867589,228.61678 24.956211,229.0539 24.96875,229.8125 C 24.990382,231.12124 23.728723,233.28401 22.0625,234.8125 C 17.273085,239.20601 15.657807,245.99136 18.125,251.40625 C 19.211186,253.79016 21.786435,255.55731 22.75,254.59375 C 23.001095,254.34266 22.67587,252.54697 22.03125,250.59375 C 20.665327,246.45497 21.375725,243.4212 24.03125,242 C 25.662658,241.1269 25.975217,241.42877 26.5,244.25 C 26.833514,246.04297 26.982567,250.43052 26.8125,254 C 26.472742,261.13107 26.117346,261.45024 20.03125,260 C 9.7317261,257.54578 9.7494217,243.77273 20.0625,232.71875 C 22.733472,229.85589 23.970686,228.6387 24.53125,228.625 z M 30.8125,239.59375 C 31.293115,239.5888 31.907385,239.6903 32.6875,239.90625 C 34.834878,240.50068 35.447025,241.23952 35.25,242.96875 C 35.061661,244.62174 35.374269,245.07625 36.46875,244.65625 C 38.588795,243.84271 39.447448,248.08389 38.03125,252.375 C 37.401171,254.28416 35.791751,256.55017 34.4375,257.4375 C 32.076919,258.98421 31.951209,258.96249 31.0625,256.625 C 29.807382,253.32379 28.611542,242.45166 29.3125,240.625 C 29.574317,239.94271 30.011476,239.602 30.8125,239.59375 z"
     id="path2603"
     sodipodi:nodetypes="csccccccccsccssssssccccsccccccccssccscssssssssccccsssssscccssssssssssssssssssssccccccccccccccccccccsccssscccccccccccccccccccccccccccccsccccsssssssssssscccccscccssssscccssscsscccccccccccccccssssssccsscccccccssscccssssccccccccccccsscccscccsscccssssssssssccsssssssc" />
</svg>
