<?xml version="1.0" encoding="UTF-8" standalone="no"?>
<!-- Created with Inkscape (http://www.inkscape.org/) -->
<svg
   xmlns:dc="http://purl.org/dc/elements/1.1/"
   xmlns:cc="http://creativecommons.org/ns#"
   xmlns:rdf="http://www.w3.org/1999/02/22-rdf-syntax-ns#"
   xmlns:svg="http://www.w3.org/2000/svg"
   xmlns="http://www.w3.org/2000/svg"
   xmlns:sodipodi="http://sodipodi.sourceforge.net/DTD/sodipodi-0.dtd"
   xmlns:inkscape="http://www.inkscape.org/namespaces/inkscape"
   id="svg2487"
   sodipodi:version="0.32"
   inkscape:version="0.46"
   width="1011"
   height="771"
   version="1.0"
   sodipodi:docname="MusicNotes.svg"
   inkscape:output_extension="org.inkscape.output.svg.inkscape">
  <metadata
     id="metadata2492">
    <rdf:RDF>
      <cc:Work
         rdf:about="">
        <dc:format>image/svg+xml</dc:format>
        <dc:type
           rdf:resource="http://purl.org/dc/dcmitype/StillImage" />
      </cc:Work>
    </rdf:RDF>
  </metadata>
  <defs
     id="defs2490">
    <inkscape:perspective
       sodipodi:type="inkscape:persp3d"
       inkscape:vp_x="0 : 526.18109 : 1"
       inkscape:vp_y="0 : 1000 : 0"
       inkscape:vp_z="744.09448 : 526.18109 : 1"
       inkscape:persp3d-origin="372.04724 : 350.78739 : 1"
       id="perspective2494" />
  </defs>
  <sodipodi:namedview
     inkscape:window-height="1002"
     inkscape:window-width="1280"
     inkscape:pageshadow="2"
     inkscape:pageopacity="0.0"
     guidetolerance="10.0"
     gridtolerance="10.0"
     objecttolerance="10.0"
     borderopacity="1.0"
     bordercolor="#666666"
     pagecolor="#ffffff"
     id="base"
     showgrid="false"
     inkscape:zoom="0.53808111"
     inkscape:cx="505.5"
     inkscape:cy="385.5"
     inkscape:window-x="1148"
     inkscape:window-y="-4"
     inkscape:current-layer="svg2487" />
  <path
     style="fill:#000000"
     d="M 557.9375 8.40625 C 552.77137 8.5216838 547.94263 9.8861228 543.5 12.5 C 525.80933 22.908526 520.1877 41.547146 521.28125 86.28125 C 521.77301 106.39794 522.1215 109.72647 524.875 121.5 C 529.11403 139.62518 535.34842 156.96863 542.03125 169.25 C 543.7521 172.4125 544.91689 175 544.625 175 C 544.33311 175 542.41907 173.8559 540.375 172.46875 C 531.53694 166.47109 516.15302 165.35575 506.875 170.03125 C 492.14796 177.45271 482.97577 193.36351 483 211.4375 C 483.01289 221.04804 484.70279 227.07102 489.46875 234.78125 C 499.51475 251.03347 518.17152 258.0728 537.875 253.03125 C 548.28952 250.36647 553.25197 248.08149 559.25 243.125 C 570.87007 233.52274 576.97028 221.50998 578.5 205.3125 C 579.01387 199.87118 578.67079 198.08688 575.65625 190.28125 C 573.77326 185.40557 570.89106 178.74422 569.25 175.46875 C 565.5782 168.13993 559.83057 153.67087 555.5 140.90625 C 548.70625 120.88115 545.63192 100.47219 546.625 81.9375 C 547.2574 70.134649 548.1667 66.264529 551.0625 63.15625 C 554.6899 59.262692 558.47497 60.255877 578.21875 70.25 C 601.00449 81.783955 610.65876 84.552643 625.40625 83.78125 L 635 83.28125 L 635 98 C 635 125.46132 642.28986 153.49457 655.4375 176.5625 C 657.90112 180.885 659.75031 184.56219 659.5625 184.75 C 659.37467 184.93782 657.5337 183.9638 655.46875 182.5625 C 647.21172 176.95913 632.10435 175.8083 622.96875 180.09375 C 613.19726 184.6775 605.56711 193.80842 602 205.1875 C 599.54321 213.02465 599.35533 225.49598 601.59375 233.0625 C 604.98447 244.52419 615.50805 255.20722 627 258.84375 C 639.255 262.72174 653.86372 260.97378 668.75 253.875 C 682.21713 247.45296 691.596 232.46835 693.53125 214.28125 C 694.32887 206.78538 694.09256 206.03941 683.75 182 C 674.42554 160.32698 670.9881 150.59587 667.46875 136.09375 C 661.97633 113.46131 661.04104 88.938819 665.15625 74.65625 C 666.23865 70.899603 669.52979 62.124605 672.46875 55.15625 C 678.34019 41.234959 680.65988 34.316136 679.71875 33.375 C 679.38114 33.037386 671.74424 33.763239 662.78125 35 C 649.70904 36.803766 644.12585 37.143835 634.5 36.625 C 614.65029 35.555099 606.98026 32.828813 591.09375 21.3125 C 578.91973 12.487404 567.80011 8.1858764 557.9375 8.40625 z M 558.875 23.03125 C 560.1385 22.97283 561.85073 23.090341 564.375 23.28125 C 574.65897 24.059026 579.87432 26.611289 587.28125 34.5625 C 590.68019 38.211195 595.56835 42.266964 598.125 43.5625 C 605.88497 47.494774 621.81411 50.252974 634 49.78125 C 644.3707 49.379793 644.43227 49.408963 639 50.6875 C 635.975 51.399463 629.675 52.414145 625 52.96875 C 608.85122 54.88451 597.83452 53.645956 586.34375 48.59375 C 576.59692 44.308321 573.74475 44.179718 566.65625 47.65625 C 560.68229 50.58615 557.3763 50.393817 554.15625 46.9375 C 550.10844 42.59269 550.37776 28.866943 554.59375 24.90625 C 555.92122 23.659157 556.76917 23.128616 558.875 23.03125 z M 532 61.84375 C 532.40945 61.912442 532.55611 65.503827 532.25 72.8125 C 531.25071 96.672715 535.86703 123.05769 544.90625 145.25 C 547.09047 150.6125 548.66861 155 548.4375 155 C 548.20643 155 546.40219 151.80755 544.4375 147.90625 C 532.8835 124.96309 527.59836 98.495577 529.875 74.96875 C 530.7202 66.234361 531.53596 61.7659 532 61.84375 z M 889.59375 76.09375 C 876.49148 76.351421 865.27945 83.558679 859.09375 95.8125 C 850.83038 112.18214 848.49453 159.91693 854.53125 189 C 856.01754 196.16047 863.4162 218.33792 865.375 221.5 C 870.62483 229.97474 871.37234 231.50361 869.4375 229.875 C 865.68441 226.71592 861.13974 225.05516 853.875 224.1875 C 841.31582 222.68751 832.34949 226.28627 821.84375 237.09375 C 806.15706 253.231 804.7341 273.03337 817.96875 290.5625 C 822.6471 296.75893 832.17628 303.78773 840 306.78125 C 844.06397 308.33621 847.89071 308.88957 854.625 308.9375 C 862.62768 308.99445 864.85112 308.58851 872.90625 305.59375 C 884.01822 301.4625 890.8398 296.00281 897.53125 285.9375 C 903.21547 277.38721 905.25993 269.68195 904.8125 258.5 C 904.50935 250.92414 904.1105 249.70474 897.3125 235.5 C 885.44508 210.70244 879.76921 191.90099 877.65625 170.5 C 876.17203 155.46697 877.5497 137.27922 880.5625 132.125 C 882.45112 128.89398 882.64224 128.83775 888.03125 129.21875 C 892.01917 129.5007 895.67275 130.68735 901.03125 133.5 C 915.434 141.05993 922.58789 144.24375 932.96875 147.71875 C 943.00394 151.07803 943.91014 151.23002 954.46875 150.78125 C 960.58462 150.52131 966.83555 149.69141 968.5 148.9375 C 974.44616 146.24419 982.86912 139.9723 987.21875 135 C 991.43226 130.18333 1009.635 101.24072 1008.875 100.5625 C 1008.6771 100.38599 1005.0048 100.84872 1000.7188 101.59375 C 989.04056 103.62375 968.42249 105.08373 961.03125 104.40625 C 946.64917 103.08799 934.34678 98.243842 922 89 C 918.975 86.735229 912.71417 82.98279 908.09375 80.6875 C 900.98022 77.153702 898.56621 76.475209 892.25 76.15625 C 891.36057 76.111336 890.46723 76.076572 889.59375 76.09375 z M 898.0625 89.09375 C 903.3908 88.989462 911.56075 91.210764 916.5 94.125 C 918.4081 95.250802 922.68305 98.848143 926 102.09375 C 932.76094 108.70933 938.97534 112.21212 946.8125 113.875 C 954.66512 115.54116 976.45812 115.29198 982.46875 113.46875 C 990.17034 111.13261 986.51474 113.49343 976.375 117.40625 C 969.62992 120.0091 965.19657 121.06698 959.375 121.40625 C 950.6628 121.91399 949.14173 121.74289 940.65625 119.3125 C 934.73545 117.61668 932.78384 116.17845 918.375 102.9375 C 911.42223 96.548278 904.54859 92.341829 898 90.46875 L 893.5 89.1875 L 898.0625 89.09375 z M 862.84375 117.3125 C 863.3801 117.17904 863.51192 123.19468 863.53125 141.28125 C 863.56181 169.83573 864.82423 181.93328 870.125 204.90625 C 871.19006 209.52211 871.88381 213.45995 871.6875 213.65625 C 871.49122 213.85254 869.89743 209.38715 868.15625 203.75 C 858.6368 172.93035 856.49087 141.47462 862.3125 118.71875 C 862.53557 117.84678 862.69357 117.34987 862.84375 117.3125 z M 646 120.5 L 647.46875 128 C 650.12359 141.7952 657.87501 162.53655 662.4375 168 C 663.12646 168.825 664.01513 170.0625 664.40625 170.75 C 666.07142 173.67701 663.96067 171.60225 660.25 166.6875 C 652.03854 155.8115 647.29648 142.71537 646.46875 128.5 L 646 120.5 z M 173.28125 134 C 168.44219 134.19793 166.3726 136.47551 160.15625 142.75 C 146.39845 156.63647 138.59217 171.8387 133.8125 194 C 129.82163 212.50389 131.20921 240.5331 137.09375 260.375 C 138.21333 264.15006 138.93747 267.75484 138.6875 268.40625 C 138.43753 269.05767 134.21612 272.00602 129.34375 274.96875 C 96.382438 295.01159 41.52639 347.6188 8.15625 391.15625 L 0 401.8125 L 0 418.09375 L 0 434.375 L 3.25 439.15625 C 5.0375 441.79299 6.820374 443.95457 7.21875 443.96875 C 7.6171259 443.98294 8.7074487 442.5375 9.625 440.75 C 13.728499 432.75589 32.364246 408.08604 46.4375 392.03125 C 58.686666 378.05737 79.671431 356.2935 86.03125 350.96875 L 90.6875 347.0625 L 94.09375 351.9375 C 98.954653 358.86576 106.92015 364.76058 115.25 367.59375 C 119.15198 368.9209 123.46575 370 124.84375 370 C 127.07604 370 126.82069 370.40885 122.375 373.75 C 99.345441 391.05781 61.761784 428.52363 36.9375 458.90625 C 31.99466 464.95583 10.842579 492.722 9.65625 494.71875 C 9.0497168 495.73963 20.996781 513.5289 26.78125 520.21875 C 28.150171 521.80194 28.833446 521.10959 35.3125 511.71875 C 55.031241 483.13815 90.486388 443.59445 124 412.8125 C 140.40417 397.74543 169.37912 374.40444 181.09375 366.8125 C 195.26722 357.62702 208.92956 352.0947 225.21875 348.9375 C 233.47864 347.33654 255.92601 347.66236 263.21875 349.5 C 296.08839 357.78256 319.62716 370.95808 355.78125 401.21875 C 361.11837 405.68587 367.74874 410.76683 370.5 412.53125 C 375.28508 415.60001 375.62026 416.13274 378.34375 424.625 C 379.90966 429.50775 382.94841 436.78277 385.09375 440.8125 C 389.46637 449.02589 389.7624 449.98412 387.25 447.78125 C 382.98318 444.04011 378.45604 442.6252 370 442.40625 L 361.5 442.1875 L 355 436.75 C 351.425 433.75345 342.65 427.02467 335.5 421.8125 C 318.38654 409.33723 304.97993 403.91579 282.90625 400.5625 C 268.41417 398.36095 268.19708 398.34779 253.90625 400.09375 C 219.7363 404.2684 183.19802 420.7872 148.65625 447.6875 C 123.68327 467.13585 94.814198 494.73974 71.5 521.4375 C 59.892449 534.72965 32.784859 568.58045 31.0625 571.9375 C 30.495254 573.04313 32.894296 577.33006 39.375 586.71875 C 44.389331 593.9831 48.790925 599.94562 49.15625 599.96875 C 49.521574 599.9919 51.265233 597.6375 53.03125 594.75 C 70.518558 566.15763 113.20752 519.05789 153.5625 483.8125 C 194.16303 448.35266 212.81293 436.3563 238.3125 429.28125 C 246.19841 427.09324 249.56158 426.7342 262 426.71875 C 277.83245 426.69906 289.0943 428.57792 303.125 433.59375 C 311.40792 436.55481 330.04015 445.62415 337.28125 450.21875 L 342.03125 453.25 L 337.6875 458.375 C 332.84447 464.09865 328 475.16721 328 480.5 C 328 484.45097 327.42757 484.63685 322.21875 482.375 C 320.17392 481.48706 311.77168 479.79475 303.5625 478.59375 C 288.87256 476.4446 288.41434 476.44065 274.5625 478.125 C 234.46335 483.00093 194.13795 503.70714 148.5 542.90625 C 125.30917 562.82519 91.268908 598.93747 72.5 623.5 C 67.036488 630.65 60.643895 638.89516 58.28125 641.8125 C 49.806908 652.27643 49.600521 649.98493 60.34375 665.4375 L 69.8125 679.0625 L 76.25 669.21875 C 93.141633 643.43822 133.09216 598.80687 161 574.53125 C 163.475 572.37837 169.1 567.34947 173.5 563.34375 C 184.98191 552.89073 210.82247 532.7601 222.40625 525.25 C 234.60659 517.34018 246.81016 511.86967 260.25 508.3125 C 269.17918 505.94917 272.34986 505.6252 285 505.65625 C 296.1613 505.68365 301.58955 506.18066 308.5625 507.8125 C 335.31862 514.07413 359.9395 527.66265 392.96875 554.4375 C 401.47546 561.33338 411.60047 568.63155 415.46875 570.65625 C 419.33704 572.68094 427.38717 577.22274 433.34375 580.75 C 448.32765 589.62286 477.02875 603.28814 492 608.65625 C 498.875 611.12137 506.075 613.71747 508 614.4375 C 510.92488 615.53155 511.82864 616.64617 513.5 621.1875 C 522.10372 644.565 545.03754 654.84344 568.9375 646.03125 C 578.98041 642.32832 581.53637 640.99704 587.46875 636.46875 L 592.1875 632.875 L 607.84375 634.0625 C 634.43082 636.09892 677.95831 633.93432 708.96875 629.03125 C 726.15192 626.31442 746.43827 622.38043 752.375 620.59375 C 754.91104 619.83051 757 619.35702 757 619.5625 C 757 619.76799 755.94851 622.328 754.65625 625.25 C 753.36401 628.17198 751.9998 633.70004 751.625 637.53125 C 751.04902 643.41915 751.29263 645.57508 753.3125 651.5 C 756.48295 660.80009 761.71026 668.66703 767.65625 673.15625 C 772.80692 677.04497 784.4834 681.94859 788.875 682.0625 C 792.69425 682.16156 770.54041 688.57936 756.5 691.4375 C 732.30139 696.36348 721.06458 697.25551 683.5 697.25 C 654.07426 697.24567 645.55361 696.90552 630 695.09375 C 568.23393 687.89894 524.32738 674.25461 475.03125 646.9375 C 455.88716 636.32894 420.98032 612.78423 408.90625 602.34375 C 394.36228 589.76756 390.66924 586.87601 378.03125 578.09375 C 366.6528 570.1868 362.3477 567.85439 351 563.46875 C 338.93704 558.80668 335.99308 558.0778 323.25 556.625 C 315.40637 555.73075 308.41526 555 307.71875 555 C 307.02227 555 305.15619 551.9625 303.5625 548.25 C 296.86133 532.6397 284.61632 524.76917 262.78125 522.03125 C 250.37918 520.47616 250.81893 520.34244 243.46875 527.75 C 227.75224 543.5892 217.99692 561.80156 213.9375 582.84375 C 212.8202 588.63532 212.34674 589.39796 208.59375 591.8125 C 201.20875 596.56377 179.72048 613.12477 169.53125 621.90625 C 155.19652 634.26047 144.62199 644.50038 129.125 661.03125 C 107.52456 684.07275 106.32447 685.48372 76.4375 724.40625 C 73.941654 727.65666 72.137354 730.89303 72.40625 731.59375 C 72.675144 732.29448 76.843784 738.30222 81.6875 744.9375 C 86.531219 751.57277 90.800681 756.99891 91.15625 757 C 91.511822 757.0011 93.826169 753.7375 96.3125 749.75 C 102.56416 739.72378 120.29955 716.77428 132.40625 703.03125 C 147.93452 685.4042 183.92345 649.83829 199.5 636.71875 L 213.46875 624.9375 L 215.1875 633.59375 C 217.73447 646.53403 222.47533 661.83654 226.96875 671.5625 C 230.47061 679.14225 230.71098 680.03699 228.75 678.59375 C 222.28863 673.83837 217.7187 672.48511 208 672.53125 C 200.02971 672.56908 197.7754 672.96719 194 674.9375 C 178.46069 683.04725 168 699.16991 168 715 C 168 724.25348 169.9443 730.5712 175.125 738.03125 C 182.83716 749.13657 195.9325 756 209.375 756 C 215.2936 756 218.26612 755.36004 225.3125 752.59375 C 235.48041 748.60199 240.88617 745.54912 246.78125 740.46875 C 256.21378 732.33979 263.00246 717.95476 263.25 705.5 C 263.35035 700.45077 262.49988 697.36076 258.03125 686 C 245.31524 653.67156 238.86619 630.42079 237.6875 612.78125 C 237.15759 604.85088 237.75133 604.36399 246.84375 605.5 C 254.24474 606.42469 257.82311 608.36243 258.5 611.78125 C 259.71134 617.89956 263.52089 623.26857 268.6875 626.1875 C 276.38731 630.53761 284.46506 631.64715 293.3125 629.53125 C 301.46147 627.58241 311.66657 623.70918 316.9375 620.59375 L 320.5 618.5 L 313 617.78125 C 302.54933 616.7649 296.31781 615.18241 290.65625 612.15625 C 285.96688 609.64971 279.0148 602.76183 278.96875 600.5625 C 278.95643 599.974 277.67377 596.89171 276.125 593.71875 L 273.3125 587.96875 L 278.6875 586.40625 C 284.0248 584.85466 284.04839 584.85367 287.15625 587.46875 C 298.71078 597.19125 317.65809 599.55279 335.5 593.46875 C 339.9 591.96835 344.20226 590.74848 345.0625 590.78125 C 345.92276 590.81398 350.77056 592.49385 355.84375 594.5 C 371.82965 600.82145 387.62009 610.95655 412 630.5625 C 421.075 637.86048 431.2 645.36594 434.5 647.25 C 437.8 649.13409 446.8 654.42803 454.5 659 C 471.42814 669.05135 494.97833 680.48892 512.25 687.0625 C 548.47403 700.84925 574.61778 707.1127 614.5 711.59375 C 636.05203 714.01525 680.45304 714.07281 700.5 711.6875 C 752.30688 705.52325 792.0126 695.68885 826.84375 680.375 C 842.86074 673.33296 855.01027 666.9127 862.5 661.5625 C 865.24824 659.59933 867.78619 658 868.15625 658 C 868.5263 658 869.58686 660.25084 870.5 663 C 876.06836 679.76475 895.14468 692.98662 913.78125 693 C 921.433 693.00549 932.85652 689.42558 939.5625 684.90625 C 949.25025 678.37745 956.60695 666.25981 959.5 652.0625 C 961.89605 640.30402 961.20464 632.33669 957.0625 623.5 C 950.62378 609.76381 941.80423 588.49155 939.46875 581.0625 C 932.73518 559.64327 930.29842 540.04245 932 521.21875 C 933.49824 504.64474 935.6919 499.20117 952 471.71875 C 953.23782 469.63277 954.05077 467.70703 953.8125 467.46875 C 953.57421 467.23045 946.93646 467.50347 939.0625 468.0625 C 907.11898 470.33036 885.28805 465.70095 854.0625 450.03125 C 842.45171 444.20468 831.59262 440.75786 824.5625 440.65625 C 818.48211 440.56836 809.8969 444.41294 805.15625 449.375 C 800.95351 453.77402 795.43472 464.39385 793.59375 471.59375 C 792.20479 477.02585 790.02334 499.67543 790 509.03125 L 790 512.53125 L 775.75 517.71875 C 757.98814 524.19126 725.89511 533.38196 712 535.96875 C 694.9907 539.13529 678.74434 540.80058 658.5 541.4375 C 639.99422 542.01975 594.057 540.57642 585.6875 539.15625 L 581.5 538.46875 L 579.8125 529.96875 C 576.83022 515.11653 577.59519 494.29214 581.625 480.75 C 582.0903 479.18637 583.69358 478.99904 596.8125 479 L 611.5 479 L 616.5 487 C 633.06809 513.47969 635.20615 516.28849 641.90625 520.4375 C 647.1445 523.68125 649.45562 524.49529 654.4375 524.8125 C 660.03595 525.16899 661.09023 524.90351 667.03125 521.4375 C 675.67174 516.39659 679.9673 512.19189 687.0625 501.84375 C 692.89462 493.33778 699.9618 478.39344 701.9375 470.46875 L 702.9375 466.46875 L 714.21875 463.5625 C 743.92116 455.9282 772.78118 443.72637 794.3125 429.6875 C 806.99238 421.41996 822.37877 408.64383 827.96875 401.75 L 831.40625 397.5 L 826.96875 401.53125 C 816.89257 410.638 795.6749 422.76588 774.5 431.53125 C 733.59244 448.46499 685.13071 460.86067 658.0625 461.3125 L 646.625 461.5 L 642.375 446.65625 C 637.82223 430.70901 635.37961 426.06919 628.46875 420.40625 C 620.72238 414.05868 609.17924 411.84841 594.625 413.90625 C 577.36245 416.34702 565.13592 427.69191 560.0625 446 C 558.92554 450.10283 558.00843 454.35771 558 455.46875 C 557.96872 459.59459 557.05023 459.85345 547 458.4375 C 525.04606 455.3445 497.08479 448.13632 467.5 437.96875 C 452.36956 432.76879 416.64673 415.86794 404.375 408.09375 C 397.52177 403.75221 397.92408 404.83495 396.0625 386.4375 C 395.22349 378.14578 395.44342 367.8409 396.5625 362.3125 C 396.99491 360.17636 397.24434 360.22356 406.75 364.65625 C 427.12251 374.15641 457.5699 384.43899 483 390.40625 C 553.37018 406.91885 639.75314 402.2235 714.90625 377.8125 C 754.05703 365.09567 789.50049 344.36996 806.0625 324.5 L 809.40625 320.5 L 805.9375 323.65625 C 796.96242 331.85049 775.94588 343.7605 754 353.0625 C 734.81381 361.19476 732.54478 361.94187 704.09375 370.0625 C 664.62616 381.32752 645.01986 384 601.46875 384 C 556.79648 384 527.31778 380.88734 490.5 372.28125 C 480.89094 370.03515 479.81612 369.56788 482 368.6875 C 498.14044 362.18079 504.51159 356.03959 517.875 334 C 522.9564 325.6195 526.38738 319 525.65625 319 C 524.93691 319 519.44574 319.73885 513.4375 320.625 C 507.42926 321.51115 495.975 322.2651 488 322.3125 C 475.69319 322.38565 472.30897 322.06414 465.625 320.125 C 457.8648 317.87363 449.45625 313.37421 440.8125 306.84375 C 438.3875 305.01162 432.52694 301.51113 427.78125 299.09375 C 420.45499 295.36187 418.03098 294.62986 411.625 294.21875 C 405.33045 293.81479 403.10579 294.13317 398.28125 296.0625 C 390.5369 299.15949 388.17369 300.67419 383.78125 305.375 C 379.93029 309.49633 375 318.45793 375 321.34375 C 375 322.25143 374.53223 323 373.96875 323 C 370.79413 323 336.81871 299.24751 320.875 285.875 C 314.48551 280.51593 302.7855 271.39021 294.875 265.59375 C 281.5822 255.8534 279.45353 254.67223 266.84375 250 C 255.59623 245.83251 251.02997 244.66984 240.84375 243.46875 C 234.04779 242.66742 226.475 241.9795 224 241.9375 C 219.86284 241.86729 219.70158 241.78443 222 240.78125 C 223.375 240.18112 227.875 238.08517 232 236.125 L 239.5 232.5625 L 230.28125 231.8125 C 217.81688 230.81695 207.63027 226.67758 202 220.28125 C 199.79753 217.77911 198 215.28143 198 214.75 C 198 214.21856 196.60515 210.87223 194.90625 207.3125 C 190.58019 198.24806 183.82846 193.87423 170.46875 191.46875 C 165.25292 190.52962 161 189.45929 161 189.09375 C 161 188.7282 162.62455 185.36107 164.625 181.59375 L 168.28125 174.75 L 176.375 175.28125 C 185.29573 175.88053 192.57894 178.05388 194.625 180.75 C 195.35265 181.70883 196.61617 184.77046 197.4375 187.53125 C 198.25883 190.29204 200.33008 194.66575 202.0625 197.28125 C 204.66728 201.21375 206.6359 202.7381 213.375 206 C 225.16909 211.70866 233.02748 212.62913 245.75 209.84375 C 255.30148 207.75263 266.49266 203.41019 279.15625 196.84375 L 285.5 193.53125 L 275.5 192.90625 C 263.03192 192.1081 255.65482 190.5857 246.84375 187 C 237.82448 183.32959 236.11794 182.13246 230.84375 175.8125 C 227.85193 172.22748 225.32615 167.5732 223.09375 161.5 C 219.00347 150.37248 215.59417 146.63565 204.5625 141.09375 C 198.12198 137.85827 194.16462 136.61932 186.5 135.46875 C 180.08855 134.50629 176.18469 133.88124 173.28125 134 z M 186.03125 143.21875 C 187.03144 143.21551 189.29815 143.68807 192.875 144.53125 C 204.05142 147.16588 208.51935 151.59889 213.03125 164.5 C 214.76242 169.45 217.04745 174.88518 218.09375 176.59375 C 221.11117 181.52103 229.54469 188.87502 235.25 191.53125 C 239.93467 193.7123 240.18338 193.98859 237.5 193.9375 C 231.21363 193.81779 223.97162 190.71548 217.34375 185.3125 C 213.32925 182.0399 211.08193 177.81783 208 167.78125 C 206.04124 161.40241 199.12268 153.21363 191.1875 147.90625 C 186.18644 144.56134 184.36427 143.22415 186.03125 143.21875 z M 521.09375 180.1875 C 521.78594 180.20172 522.46556 180.21317 523.1875 180.28125 C 528.67853 180.79905 540.66835 184.67542 539.71875 185.625 C 539.53084 185.81291 535.80007 186.45834 531.4375 187.0625 C 527.07496 187.66665 520.26497 189.4057 516.3125 190.9375 C 511.98382 192.61509 506.94964 195.59261 503.65625 198.40625 L 498.1875 203.09375 L 499.875 197.78125 C 503.66847 185.79867 510.71093 179.97416 521.09375 180.1875 z M 634.1875 189.75 C 638.556 189.63692 643.50236 190.61869 648.5 192.65625 L 655.5 195.5 L 647.5 196.15625 C 639.69719 196.79377 631.68224 199.04556 625.0625 202.46875 C 623.26005 203.40084 619.72918 206.0529 617.21875 208.34375 C 614.52397 210.80281 612.90924 211.74427 613.3125 210.65625 C 613.68819 209.64265 614.28655 207.61765 614.625 206.15625 C 615.64899 201.73487 621.27873 194.26921 625.28125 192 C 627.75817 190.59572 630.78977 189.83795 634.1875 189.75 z M 168.5 200 L 171.3125 200 C 177.21238 199.99212 183.88012 205.67537 186 212.5 C 189.0122 222.19735 194.48163 228.20128 203.6875 231.9375 C 207.99377 233.68521 208.17801 233.88474 205.5 233.84375 C 197.23435 233.71723 189.69573 229.83829 186.03125 223.8125 C 185.03922 222.18124 183.44141 218.39925 182.5 215.40625 C 180.74978 209.84182 177.00637 205.18267 171.53125 201.84375 L 168.5 200 z M 156.6875 219 L 163.125 219 C 170.94786 219 176.07273 221.39766 177.375 225.625 C 180.12635 234.55624 185.127 240.10765 192.21875 242.125 C 194.56537 242.79253 196.85617 243.64016 197.28125 244 C 197.70632 244.35986 192.33898 246.34309 185.375 248.40625 C 178.41102 250.4694 170.33076 253.20664 167.40625 254.5 C 162.59992 256.62559 162.04 256.70209 161.59375 255.1875 C 160.20696 250.48073 157.86178 235.47498 157.3125 227.75 L 156.6875 219 z M 850.4375 236 C 855.38091 236 865.13542 239.24688 867.03125 241.53125 C 868.07628 242.79044 867.27983 243 861.28125 243 C 844.63055 243 831.8263 251.89315 827.4375 266.5 C 824.66446 275.72923 823.7155 275.56408 824.1875 265.9375 C 824.56883 258.16029 824.95377 256.80844 828.40625 251.125 C 830.49562 247.68551 833.394 243.78179 834.84375 242.4375 C 838.84085 238.73118 845.44967 236 850.4375 236 z M 227.78125 269.59375 C 239.647 269.57436 241.15762 269.99909 252.3125 273.25 C 269.05759 278.13009 277.93256 282.09447 294.09375 292 C 306.69176 299.72159 312.08756 303.77048 337.0625 324.1875 C 342.87232 328.93703 349.62231 333.83449 352.0625 335.0625 C 354.50268 336.29051 359.52721 339.11347 363.21875 341.34375 L 369.9375 345.40625 L 370.21875 365.71875 C 370.37722 376.8807 370.275 385.96868 370 385.9375 C 368.94735 385.81818 349.82454 371.08662 338.90625 361.96875 C 332.62517 356.72341 321.425 348.1328 314 342.875 C 302.0738 334.4298 298.9262 332.72803 287 328.3125 C 275.92031 324.21038 271.07969 322.99656 260 321.5625 C 247.44295 319.93721 245.55705 319.93645 233 321.40625 C 218.43943 323.11056 198.97124 328.38544 186.78125 333.9375 C 183.08082 335.6229 179.82519 337 179.5625 337 C 179.29982 337 179.78097 335.0875 180.625 332.75 C 181.46901 330.4125 182.24967 324.9 182.34375 320.5 C 182.50586 312.91875 182.19902 311.73834 176.75 298.03125 C 173.5875 290.07594 171 283.27737 171 282.90625 C 171 281.55926 186.71882 274.71539 195.5 272.25 C 203.455 270.01656 206.53195 269.72311 222 269.625 C 224.17561 269.6112 226.08614 269.59652 227.78125 269.59375 z M 131.03125 299.6875 C 134.54055 299.76201 135.81172 300.38188 138.75 302.375 C 145.48385 306.94274 144.60591 308.27285 134 309.5 C 126.4667 310.37165 116.89119 315.16166 112.5625 320.21875 C 109.1592 324.19475 105.03174 333.23137 105 336.78125 C 104.99158 337.72312 104.58773 339.08262 104.125 339.8125 C 103.04886 341.50994 102.01507 335.63948 102 327.6875 C 101.97688 315.49191 105.89552 307.61261 114.40625 302.625 C 117.91109 300.57103 120.31172 300.00287 126.625 299.78125 C 128.43786 299.71762 129.86148 299.66266 131.03125 299.6875 z M 412.5 306.96875 L 418.5 307.375 C 428.70885 308.08014 435.50838 311.35434 444 319.59375 C 456.56304 331.78366 467.02222 335.07724 487.125 333.21875 C 493.38755 332.63978 499.625 331.83303 501 331.4375 C 506.41886 329.87872 501.19465 332.86743 493.125 335.9375 C 484.97846 339.03682 472.02459 340.74191 466.5 339.4375 C 454.32683 336.56333 452.96128 335.76834 442.40625 325.84375 C 431.48843 315.57804 425.92984 311.77582 417.5625 308.78125 L 412.5 306.96875 z M 380.8125 338.5 C 381.42243 338.16802 381.60575 345.04962 381.625 360.09375 C 381.65903 386.68641 383.21583 401.61069 388.125 422.90625 C 389.18908 427.52211 389.88378 431.45995 389.6875 431.65625 C 389.23723 432.10652 383.33508 413.01984 382.0625 407 C 378.32894 389.33876 376.95091 363.8613 378.90625 349 C 379.7847 342.32347 380.39518 338.72714 380.8125 338.5 z M 596.9375 425 C 601.97287 424.88521 610.21131 425.45252 613.84375 426.53125 C 623.70891 429.46088 627.85103 435.47944 631.46875 452 C 633.39626 460.80213 637.29528 469.98658 641.3125 475.25 C 642.88668 477.3125 643.94921 479 643.6875 479 C 643.42577 479 640.98109 476.98677 638.25 474.53125 C 632.96417 469.77884 627.52921 460.46503 624.5 451 C 622.06852 443.40254 619.68145 438.97918 616.34375 435.8125 C 612.2388 431.91785 602.07428 427.03259 598 427 C 596.075 426.98462 593.825 426.53316 593 426 C 592.04798 425.38476 593.91628 425.06887 596.9375 425 z M 407.875 434.0625 L 413.53125 436.65625 C 416.64295 438.08083 423.3109 441.24947 428.34375 443.71875 C 445.13953 451.95929 481.08801 464.0663 504.5 469.375 C 515.76313 471.92894 535.79512 475.33004 546.5 476.5 C 556.90743 477.63744 555.99543 475.84371 556 495.3125 C 556.00355 510.47633 557.3454 524.53481 559.65625 533.75 C 559.96658 534.9875 559.81588 535.95261 559.34375 535.90625 C 552.28524 535.21315 527.84428 529.2161 510.5 523.90625 C 480.33773 514.6722 464.46143 508.14325 438.34375 494.3125 L 424.1875 486.84375 L 423.84375 477.65625 C 423.49246 468.661 423.3433 468.22309 416.34375 453.5 C 412.42158 445.25 408.8958 437.503 408.53125 436.28125 L 407.875 434.0625 z M 370.8125 454 C 374.38077 454.07144 377.93584 454.96478 381.28125 456.6875 L 386.5 459.375 L 378 460.53125 C 363.99125 462.4486 352.98161 469.21192 348.5 478.65625 C 347.5454 480.66792 345.96765 485.05931 345 488.40625 L 343.21875 494.5 L 342.875 490.5 C 342.07949 481.79597 343.40178 475.51248 347.4375 468.875 C 349.57311 465.3626 352.47996 461.49879 353.90625 460.28125 C 358.89746 456.02054 364.86538 453.88093 370.8125 454 z M 846.09375 458.5625 C 846.51015 458.60127 848.29779 459.61842 850.4375 461.0625 C 861.82886 468.75044 883.80231 474.67366 902.5 475.09375 C 908.34704 475.22512 908.39803 475.25622 904.5 476.0625 C 899.49768 477.09719 880.01202 477.03664 874 475.96875 C 863.7045 474.14 853.19179 468.5693 848.5625 462.5 C 847.1453 460.64195 846 458.88683 846 458.59375 C 846 458.55711 846.03426 458.55696 846.09375 458.5625 z M 570.5 460.71875 C 570.60875 460.70326 570.62003 461.12472 570.5 462 C 566.66809 489.94446 568.26475 520.7166 574.625 541.375 C 575.96088 545.71398 576.88939 549.45438 576.6875 549.65625 C 576.214 550.12974 569.53894 535.5791 568.09375 530.9375 C 562.55175 513.13815 562.97881 483.02413 569.03125 464.5 C 569.84835 461.99918 570.31875 460.74456 570.5 460.71875 z M 696.375 468.25 C 696.51618 468.24615 696.60138 468.25763 696.625 468.28125 C 697.25853 468.91477 687.12108 476.13211 682.28125 478.5 C 679.64852 479.78805 675.7 481.31609 673.5 481.90625 C 667.7781 483.44115 665.09807 483.2211 660 480.71875 C 652.13586 476.85872 653.33859 475.57969 666.71875 473.59375 C 673.20319 472.6313 682.48857 470.98203 687.375 469.90625 C 691.6506 468.96492 695.38675 468.27698 696.375 468.25 z M 688.15625 482.96875 C 689.10441 482.78642 688.28609 484.76693 685.96875 487.40625 C 682.94765 490.84708 682.50518 491 676.34375 491 C 672.29478 491 670.11236 490.62722 670.5 490 C 670.83992 489.45 671.87471 489 672.8125 489 C 675.0864 489 684.77314 485.41721 686.59375 483.90625 C 687.314 483.3085 687.8402 483.02953 688.15625 482.96875 z M 919.4375 493.21875 C 919.48896 493.19664 919.53126 493.21876 919.5625 493.25 C 919.81241 493.49991 918.41758 500.39673 916.4375 508.59375 C 912.88563 523.29763 912.8294 523.73129 913.21875 540.75 C 913.4358 550.2375 913.51575 558 913.40625 558 C 912.94054 558 912.03491 552.88034 910.9375 544.28125 C 909.02944 529.33028 911.6128 510.42263 917.46875 496.65625 C 918.25855 494.79955 919.07725 493.37351 919.4375 493.21875 z M 416.71875 504.65625 L 421.21875 507.28125 C 429.53993 512.15778 455.4068 524.68402 464.78125 528.375 C 494.60412 540.1172 526.28071 548.61026 562.3125 554.5 C 565.46769 555.01575 566.3345 555.68623 567.25 558.3125 C 567.86004 560.06246 569.74997 564.21707 571.4375 567.5625 L 574.5 573.65625 L 570 570.8125 C 560.60512 564.84631 547.3936 563.82862 537.53125 568.34375 C 530.27744 571.66465 519.55152 582.41815 516.09375 589.8125 C 514.76224 592.65993 513.18726 594.99385 512.59375 594.96875 C 510.9824 594.90056 488.94577 585.98 477.375 580.71875 C 449.55671 568.06963 415.9609 547.48833 393.21875 529.15625 L 388.90625 525.6875 L 395.71875 522.84375 C 402.44838 520.01189 410.30015 513.66185 414.65625 507.5625 L 416.71875 504.65625 z M 789.625 523.28125 C 789.76317 523.41941 790.36387 528.0439 790.9375 533.53125 C 792.64889 549.90222 798.12371 570.50085 804.5625 584.6875 L 807.84375 591.90625 L 801.15625 594.125 C 797.48866 595.34606 793.825 596.27345 793 596.21875 C 789.4673 595.98463 781.09488 598.45838 776 601.21875 C 766.9164 606.14014 736.73999 613.52526 713.59375 616.5 C 692.4485 619.21755 629.47556 619.23351 610.15625 616.53125 C 605.2698 615.84778 604.87582 615.61851 605.53125 613.65625 C 605.9251 612.47708 606.44823 607.675 606.6875 603 L 607.125 594.5 L 598.0625 576.5 C 593.07835 566.6 589.0001 558.275 589 558 C 588.99988 557.725 601.26247 557.48292 616.25 557.46875 C 645.31953 557.44128 661.07761 556.30498 686.25 552.40625 C 721.55 546.93891 755.09552 537.90767 779.4375 527.34375 C 784.90364 524.97155 789.48685 523.14308 789.625 523.28125 z M 815.9375 529.78125 L 819.5 531.875 C 827.28447 536.46795 842.54649 541.89734 855 544.53125 C 871.05449 547.92674 897.20049 551.84362 904.65625 551.96875 C 905.29541 551.97948 906.12828 553.9125 906.5 556.25 C 908.61327 569.53898 917.20909 592.57481 926 608.5 L 930.09375 615.90625 L 924.4375 612.5 C 918.00997 608.62954 912.55295 607.52581 903.53125 608.25 C 895.54916 608.89072 889.65182 612.22457 880.9375 621 C 875.62258 626.35221 873.78252 629.08092 871.1875 635.53125 C 869.33208 640.14311 867.99688 645.2914 868 647.75 L 868 651.96875 L 858 657 C 852.49357 659.76326 844.73109 663.34072 840.75 664.9375 C 836.76894 666.5343 831.7 668.6022 829.5 669.53125 L 825.5 671.21875 L 832.09375 664.34375 C 842.00128 654.01569 845.77478 646.18954 847.5 632.4375 C 848.21253 626.75779 846.17305 619.84952 839.5 605.5 C 837.45384 601.1 834.94473 595.59666 833.9375 593.28125 L 832.09375 589.09375 L 841.8125 582.6875 C 852.35699 575.74301 868.21996 562.33266 870.125 558.75 C 871.00929 557.08699 870.31465 557.41567 867.375 560.0625 C 861.61151 565.25192 837.61136 579.48115 831.375 581.40625 C 828.80063 582.20093 828.51078 581.55311 823.03125 563.1875 C 819.34739 550.84041 818.15568 545.43111 816.5625 534.125 L 815.9375 529.78125 z M 264.5 529.8125 L 269.5 530.46875 C 276.26085 531.39586 286.43321 536.38263 289.03125 540.03125 C 290.19492 541.66549 292.47827 547.16964 294.125 552.25 C 296.89928 560.80916 300.1986 566.66431 303.96875 569.78125 C 309.0881 574.01367 315.14529 577.67473 319.5 579.1875 C 325.38654 581.23239 322.97571 581.38494 314.5 579.5 C 306.52304 577.72595 300.0951 574.74019 296.78125 571.28125 C 295.29024 569.72497 292.51515 564.30273 290.625 559.21875 C 286.22892 547.39448 281.44839 541.12491 272 534.8125 L 264.5 529.8125 z M 255.375 562.0625 C 264.53502 562.16744 266.5066 563.31131 260.40625 564.96875 C 257.70049 565.70391 252.93063 567.59253 249.78125 569.15625 L 244.0625 572 L 245 569.5 C 247.49816 562.92932 248.81892 561.98737 255.375 562.0625 z M 556.5 576.96875 L 551.21875 579.0625 C 548.15822 580.27612 543.43072 583.48233 539.96875 586.6875 C 535.08619 591.20789 533.68391 593.2163 532.375 597.71875 C 529.73204 606.8102 530.77156 615.17054 535.71875 625.125 C 538.00178 629.71877 539.78502 633.56608 539.6875 633.65625 C 539.59 633.74638 537.32772 632.69021 534.6875 631.34375 C 523.57735 625.67792 519.0419 610.11442 524.125 595.0625 C 527.97826 583.65236 536.16708 577.80216 549 577.28125 L 556.5 576.96875 z M 251.78125 586.09375 C 258.82682 585.91864 264.75293 590.3579 267 597.5 C 270.25021 607.83043 276.20006 614.77421 284.5 617.96875 C 289.71523 619.97601 288.46249 620.37717 281.34375 618.96875 C 275.61974 617.8363 269.62047 614.62273 267.65625 611.625 C 266.75325 610.24684 264.87623 606.0535 263.46875 602.3125 C 260.74134 595.06314 256.38885 589.67558 251.5 587.5 L 248.5 586.15625 L 251.78125 586.09375 z M 810.9375 600.0625 C 811.62729 600.16354 812.40173 600.9653 813.46875 602.59375 C 815.7143 606.0209 815.10703 606.36693 811.8125 603.53125 C 810.3351 602.25961 809.38719 600.92533 809.71875 600.59375 C 810.13473 600.17777 810.52363 600.00187 810.9375 600.0625 z M 789.9375 609.96875 C 792.68743 609.96659 795.4873 610.45159 798.25 611.4375 C 802.12485 612.8203 809.45099 617.86148 808.6875 618.625 C 808.45001 618.86248 805.01002 618.66272 801.03125 618.1875 C 787.56306 616.57895 777.53746 621.18278 772.3125 631.3125 C 769.9601 635.87314 769.61449 637.70526 769.5625 646.25 C 769.52988 651.6095 769.37962 655.99702 769.21875 656 C 769.05789 656.00301 767.59498 653.1875 765.96875 649.75 C 761.35635 640.00027 762.08851 631.23115 768.3125 622.25 C 773.82121 614.30092 781.6877 609.97524 789.9375 609.96875 z M 906.6875 621.0625 C 910.04086 621.07032 913.38883 621.55774 915.71875 622.53125 C 919.44188 624.08687 926.42273 628.92103 925.8125 629.53125 C 925.62857 629.71518 922.18893 629.4712 918.1875 628.96875 C 904.31893 627.22735 895.41233 631.09091 889.5 641.4375 C 886.95529 645.89077 886.67109 647.34479 886.59375 656.1875 C 886.54658 661.58207 886.44926 665.9988 886.375 666 C 885.77863 666.00951 882.59171 660.08389 881.4375 656.8125 C 879.45322 651.18843 879.6489 646.03454 882.09375 639.5 C 884.48679 633.10402 892.06181 624.85056 897.6875 622.5 C 899.99158 621.53729 903.33414 621.05468 906.6875 621.0625 z M 209.96875 685.75 C 214.08709 685.72108 215.7725 686.25085 219.34375 688.34375 C 226.45458 692.51097 225.44825 694.06774 214.34375 696 C 202.89281 697.99254 197.13803 701.33096 191.84375 709.09375 C 189.23446 712.91965 187.45119 717.17579 186.1875 722.53125 C 184.35692 730.28912 184.33177 730.33882 183.6875 726.4375 C 182.63479 720.06293 182.90613 705.58487 184.15625 701.90625 C 187.50805 692.04316 196.1316 686.20087 208.03125 685.78125 C 208.73113 685.75657 209.38042 685.75413 209.96875 685.75 z "
     id="path2498" />
</svg>
